<svg id="Ebene_1" data-name="Ebene 1" xmlns="http://www.w3.org/2000/svg" viewBox="0 0 534 622.96"><defs><style>.cls-1{fill:#f0c7b1;}.cls-2{fill:#d19271;}.cls-3{fill:#c27b55;}.cls-4{fill:#4070f4;}.cls-5{fill:#0d43d5;}.cls-6{fill:#5c88ff;}.cls-7{fill:#e1ac8f;}.cls-8{fill:#e28c7c;}.cls-9{fill:#fff;}.cls-10{fill:#4e60a3;}.cls-11{fill:#4d2f20;}.cls-12{fill:#3e2213;}.cls-13{fill:#523121;}.cls-14{fill:#432314;}</style></defs><g id="svga-group-wrapper"><g id="svga-group-humanwrap-move"><g id="svga-group-humanwrap"><g id="svga-group-humanbody-back"><path id="SvgjsPath8020" class="cls-1" d="M542.4,554.7c-6.9-10.2-116.7-53.4-116.7-53.4l-40.2-15.6L368.7,279.3H230.4L213.9,486l-40.2,15.6S64.2,544.8,57,555c-6.9,10.2-9.9,44.7-9.9,44.7V657H552.6V599.4c-.3.3-3-34.5-10.2-44.7Z" transform="translate(-32.1 -40.17)"/></g><g id="svga-group-chinshadow-single"><path id="SvgjsPath8541" class="cls-2" d="M257.1,472.14c8.85,7.5,43.2,7,53,1,9.6-5.88,25.71-22.56,68.76-70.86l-10-123H230.46L218.31,432.15C237.12,452.82,251.4,467.34,257.1,472.14Z" transform="translate(-32.1 -40.17)"/></g><g id="svga-group-humanbody-front"><path id="SvgjsPath8021" class="cls-3" d="M553.5,657c-.3-19.2-.3-38.4-.3-57.6l-.9-.3a.42.42,0,0,1,.6,0,.29.29,0,0,1,.3.3v-1.2l-.3-1.5-.3-2.7-.6-5.7c-.6-3.9-1.2-7.5-1.8-11.4a78.46,78.46,0,0,0-2.7-11.4c-1.2-3.6-2.4-7.5-4.5-10.8-2.4-2.7-5.7-4.5-8.7-6.3s-6.3-3.3-9.6-5.1c-6.3-3.3-12.9-6.3-19.5-9.3-13.2-6-26.1-11.7-39.3-17.1-13.2-5.7-26.4-11.1-39.6-16.5l-39-15.6-3.6-50.7c-1.2-17.1-2.7-34.5-3.9-51.6l-3.9-51.6L371.4,279l-.3-2.4h-2.4c-23.1,0-46.2.3-69.3.3l-69.3.6h-1.5V279L225,330.6l-3.9,51.6c-2.4,34.2-5.4,68.4-8.4,102.6-16.8,6.3-33.6,12.6-50.1,19.2q-25.2,9.9-50.4,20.7c-8.4,3.6-16.8,7.2-24.9,10.8-8.4,3.9-16.5,7.5-24.6,12.3a36.42,36.42,0,0,0-6,4.2,4.41,4.41,0,0,0-1.5,1.8l-.9,1.8a16.08,16.08,0,0,0-1.5,3.3,76.27,76.27,0,0,0-3.9,13.5,272.12,272.12,0,0,0-4.2,27.3L44.4,657v2.7h2.7l126.3.3H300c42,0,84.3-.3,126.3-.6l126.3-1.5h.9V657ZM300,654l-126.3-.3L50.1,654l-.3-54.3c.9-9,1.8-17.7,3.6-26.7a86.27,86.27,0,0,1,3.3-12.6,23.79,23.79,0,0,1,1.2-2.7l.6-1.2.9-.9a42.11,42.11,0,0,1,5.4-3.6c7.5-4.5,15.9-8.4,24-12.3s16.5-7.5,24.6-11.1c16.5-7.2,33.3-14.4,50.1-21.3s33.6-13.5,50.7-20.1l.6-.3v-.6c2.7-34.5,5.1-69,8.1-103.2l4.2-51.6,4.5-50.1,67.8.6c22.2.3,44.4.3,66.9.3l3.9,49.2,4.5,51.6c1.5,17.1,3,34.5,4.5,51.6l4.8,51.6v.9l.9.3,40.2,15c13.2,5.1,26.7,10.2,39.9,15.6s26.4,11.1,39.6,16.8c6.6,3,12.9,6,19.5,9,3.3,1.5,6.3,3.3,9.6,4.8,3,1.8,6.3,3.6,8.7,6a35,35,0,0,1,4.2,10.5c.9,3.6,1.8,7.5,2.4,11.1.6,3.9,1.2,7.5,1.8,11.4l.6,5.7.3,2.7.3,1.5v1.2c0,18.9,0,37.8-.3,56.7L426.3,654c-42,.3-84.3,0-126.3,0Z" transform="translate(-32.1 -40.17)"/><path id="SvgjsPath8022" class="cls-2" d="M375.3,427.2s-5.4,69-27.3,98.7C348,525.9,371.7,450.9,375.3,427.2Zm-103.5,48s15,23.7,34.5,30.3C306.3,505.5,277.8,512.1,271.8,475.2ZM220.2,420c20.1,76.8,20.1,76.8,25.5,92.1C245.7,512.1,246.9,474.3,220.2,420Z" transform="translate(-32.1 -40.17)"/></g><g id="svga-group-clothes-single"><path id="SvgjsPath7905" class="cls-4" d="M32.7,660c0-45.6,3.6-96.6,6.9-102.3,3-5.7,15-9.9,15-9.9a145.58,145.58,0,0,1,21.3-14.4c10.5-5.7,47.1-11.7,47.1-11.7a15.92,15.92,0,0,1,1.2-5.7c1.2-2.7,5.7-3.6,15-15.6s6.3-14.4,8.1-20.1,13.2-4.5,13.2-4.5,1.2-18,14.4-30c13.2-11.7,40.8-19.8,40.8-19.8s-.3,20.7-.3,33.9-3.9,13.8,15.3,37.8c19.5,23.7,37.2,45.3,46.2,51,9.3,5.7,21.6,12,27.3,28.5,0,0,5.1-13.2,11.1-17.7s18.6-18,23.7-23.1,15.9-24.3,22.5-28.5c6.6-4.5,22.2-19.5,24.9-23.7s-2.7-65.1-2.7-65.1,20.7,11.1,28.2,16.2,14.7,28.5,14.7,28.5,7.2,6.3,15.3,12.3,14.1,8.7,18.6,17.1,2.4,15.9,4.2,19.5c1.8,3.3,3.6,6,4.8,7.8,0,0,51.3,15.3,60,19.2s17.1,12,17.1,12,9.3,5.7,11.7,29.4,5.4,79.2,5.4,79.2l-531-.3Z" transform="translate(-32.1 -40.17)"/><path id="SvgjsPath7906" class="cls-5" d="M565.8,659.7l-3.6-55.8c-.6-9.3-1.2-18.6-2.7-27.9a57.3,57.3,0,0,0-3.6-14.1,45.16,45.16,0,0,0-3.3-6.6,11.75,11.75,0,0,0-2.4-3,22.91,22.91,0,0,0-2.7-2.7,74.22,74.22,0,0,0-14.7-10.8,50.57,50.57,0,0,0-8.4-3.6l-8.4-3.3L470.1,519c-1.5-2.4-3.3-4.8-4.2-7.2a13.31,13.31,0,0,1-.6-3.9c0-1.5-.3-3-.3-4.8a30.21,30.21,0,0,0-8.1-17.7c-4.8-4.8-10.2-7.8-15.3-11.4a163.49,163.49,0,0,1-14.1-11.1c-1.8-5.1-3.6-9.9-5.7-14.7-1.2-2.4-2.4-4.8-3.9-7.2s-3-4.8-5.7-6.6c-4.5-3-9.3-5.7-14.1-8.4s-9.6-5.1-14.4-7.8l-2.1-1.2s2.1,35.1,3,51.9c0,4.2,1.2,9,.9,12.9a2.7,2.7,0,0,1-.3,1.5c0,.3,0,.3-.3.6l-.3.6c-.6.9-1.2,1.5-1.8,2.4a57.59,57.59,0,0,1-4.2,4.5A195.89,195.89,0,0,1,360,508.2a50.77,50.77,0,0,0-8.4,9.6c-2.4,3.3-4.8,6.9-7.2,10.2-1.2,1.8-2.4,3.3-3.6,5.1a15.05,15.05,0,0,1-4.2,4.5c-3.3,2.4-10.5,12.6-18.9,19.5a30.45,30.45,0,0,0-5.4,3.9,32.75,32.75,0,0,0-3.9,5.1,45.27,45.27,0,0,0-4.5,8.4,44.14,44.14,0,0,0-13.2-17.4,124.35,124.35,0,0,0-10.2-7.2c-3.6-2.1-6.3-5.1-9.6-7.5-13.2-12-13.2-18-24.9-29.1a182.91,182.91,0,0,1-15.6-18.6c-2.4-3.3-5.1-6.3-7.2-9.6a37.18,37.18,0,0,1-5.4-10.2c-1.2-3.3-.6-7.2-.3-11.4l.3-12.3.3-24.3v-3.6l-3.6.9a128.55,128.55,0,0,0-18.9,6.9,103.68,103.68,0,0,0-18,9.6,40.71,40.71,0,0,0-13.8,15.6,51.61,51.61,0,0,0-5.7,17.4,53.88,53.88,0,0,0-6.6.6,10.2,10.2,0,0,0-4.5,2.1,7.22,7.22,0,0,0-1.8,2.4,12.35,12.35,0,0,0-.9,2.4,23.53,23.53,0,0,0-.6,4.2,10.78,10.78,0,0,1-.6,3.3,33.9,33.9,0,0,1-3.3,6.6,95.66,95.66,0,0,1-9.9,12c-1.8,1.8-3.6,3.3-6,5.4a13,13,0,0,0-1.8,2.1,7.84,7.84,0,0,0-.9,2.4,8.88,8.88,0,0,0-.6,3c-4.5,1.2-22.5,2.7-27,4.2-4.8,1.8-9.6,3.3-14.4,5.4a75.27,75.27,0,0,0-13.5,7.8,113.76,113.76,0,0,0-12,9c-4.8,2.1-9.3,4.2-13.2,7.8a18.7,18.7,0,0,0-2.7,3.6,23.68,23.68,0,0,0-.9,3.9c-.6,2.7-.9,5.1-1.2,7.5-1.2,10.2-1.8,20.1-2.4,30.3s-.9,20.1-.9,30.3c0,5.1-.3,10.2-.3,15,0,5.1,0,9.9.3,15.3l131.7,1.2,132.6.9c44.1.3,88.5.3,132.9.6,44.4,0,88.8.3,133.2,0h3.3l-.3-3.3ZM310.8,567c1.2-1.8,2.4-3.3,3.6-4.8s3-2.4,4.8-3.6c7.2-4.2,10.2-14.7,38.4-28.5,9.6-4.8,18-10.8,26.1-17.1,4.2-3.3,8.1-6.6,12-9.9a34.89,34.89,0,0,0,5.4-6c1.5-2.4,2.7-4.8,3.9-7.2a47.25,47.25,0,0,0,3.6-15.6,21.25,21.25,0,0,0-.3-4.2,19.4,19.4,0,0,0-1.2-3.9,30.23,30.23,0,0,0-3.6-6.9,54.73,54.73,0,0,1,2.1,7.5,19.37,19.37,0,0,1,0,7.2,45,45,0,0,1-5.1,13.8,41.2,41.2,0,0,1-3.9,6c-1.5,1.8-3.3,3.3-5.1,5.1-3.9,3.3-7.8,6.3-11.7,9.6s-8.1,6.3-12.3,9.3l-6.3,4.5c-2.1,1.5-4.2,2.7-6.3,4.2-4.5,2.7-8.7,5.7-13.2,8.7.3-.3.3-.6.6-.6,1.2-1.8,2.4-3.3,3.6-5.1,2.4-3.3,4.8-6.9,7.2-10.2s5.1-6.9,8.1-9.3c6.9-4.8,12.9-10.8,18.9-16.8l4.5-4.5c.6-.9,1.5-1.5,2.1-2.4,0,0,6-7.5,7.2-10.8a29.36,29.36,0,0,0,2.1-12.6c-.6-4.2-2.7-15.3-4.8-19.2-1.5-3.3-6-14.7-6.6-21.6,4.2,2.4,8.1,4.5,12.3,6.9,4.8,2.7,9.3,5.4,13.8,8.4,1.8,1.2,3.3,3.6,4.8,5.7,1.2,2.4,2.4,4.5,3.6,7.2,2.1,4.8,3.9,9.9,5.7,15l.3.3.3.3a.29.29,0,0,1,.3.3v.3a58.59,58.59,0,0,1-.9,10.2,89.73,89.73,0,0,1-5.4,19.5c-4.5,12.6-11.7,24.3-22.5,31.2-2.7,1.8-5.4,3.3-8.7,5.1l-9,5.4-17.4,10.8c-3,1.8-5.7,3.3-8.7,4.8a36.16,36.16,0,0,1-9.3,3c-6.6,1.8-13.2,3.6-19.8,5.7,6.9-.9,13.8-1.8,20.4-2.7a30.31,30.31,0,0,0,5.1-.9,14.77,14.77,0,0,0,5.1-1.8c3.3-1.2,6.3-3,9.6-4.5,6.3-3.3,12-6.9,18-10.2,3-1.8,6-3.3,9-5.1a55,55,0,0,0,9-5.4,56,56,0,0,0,15-15.3,76,76,0,0,0,8.7-19.5,78.77,78.77,0,0,0,3.6-20.7c0-3,0-6.3-.3-9.3a126.89,126.89,0,0,0,12.3,9.9c5.1,3.6,10.5,6.6,14.4,10.8a26.59,26.59,0,0,1,6.9,15.6,22.71,22.71,0,0,1,.3,4.5,11.45,11.45,0,0,0,.9,5.1c-2.4,2.7-4.8,5.7-6.9,8.4-2.7,3.6-5.7,6.9-8.4,10.2-5.7,6.3-12.6,12.6-18.3,19.8a80.09,80.09,0,0,0,12.3-6.6,61.4,61.4,0,0,0,10.5-9,49.75,49.75,0,0,0,7.8-11.7,50.77,50.77,0,0,0,3.9-9.3,35.53,35.53,0,0,0,4.2,6.6l.3.6h.3c-4.5,6.6-9,13.2-14.1,19.8-5.4,6.9-11.1,13.8-17.7,19.2a93.16,93.16,0,0,1-22.5,12.9,239.44,239.44,0,0,1-24.6,8.7,245.94,245.94,0,0,1-25.8,5.4c-8.7,1.5-17.1,3.6-25.8,4.8-10.2,1.8-14.4,1.5-15.3,1.5a32.65,32.65,0,0,0-.9-8.4c1.8-.9,4.2-2.7.3-4.2-4.8-1.5-9.3.6-9.3,2.7-.3,1.8,1.5,2.1,3.3,2.1a20.45,20.45,0,0,1,.6,6.3,6.53,6.53,0,0,1-2.4-1.5,24,24,0,0,1-3.9-3.9,18,18,0,0,1-2.4-4.8l-1.8-6.3c1.8-2.7,3.3-6,5.4-9ZM125.1,523.2v-1.8a12.76,12.76,0,0,1,.6-3.3c0-.6.3-1.2.6-1.2q0-.45.9-.9a48.72,48.72,0,0,0,6-5.4A83.57,83.57,0,0,0,143.7,498a31.63,31.63,0,0,0,3.9-7.8c.9-3,.9-6,1.5-8.1,0-3.3,4.8-3.9,9.3-3.9,0,1.8.3,3.3.3,5.1a83.15,83.15,0,0,0,9.3,28.8,79.52,79.52,0,0,0,19.5,22.8A81.79,81.79,0,0,0,213.6,549a151.71,151.71,0,0,1-23.1-17.7,94.76,94.76,0,0,1-17.4-22.2,100.74,100.74,0,0,1-6-12.9,76.27,76.27,0,0,1-3.9-13.5c-.3-1.5-.6-3.3-.9-4.8l.3-1.8a47.16,47.16,0,0,1,5.7-17.7,39,39,0,0,1,12.3-13.8c5.1-3.6,11.1-6.3,17.1-9,4.8-2.1,9.9-3.9,15-5.7,0,0-5.1,12.6-6.6,15.3a16,16,0,0,0-2.1,11.7,14.34,14.34,0,0,0,1.8,5.4,23.92,23.92,0,0,0,2.4,4.8c1.2,2.1,9,16.8,11.4,20.4,2.4,3.3,5.1,6.6,7.5,9.9,5.1,6.3,10.8,14.7,16.8,20.4,12.3,12,11.4,18.9,24.9,28.2,3.3,2.4,6.9,4.5,10.5,6.6a81.1,81.1,0,0,1,9.9,6.6A41.41,41.41,0,0,1,303,578.1l.3.9-1.2,3.3a18.24,18.24,0,0,1-2.7,5.4c-1.2,1.8-2.4,3-3.6,3.3-.3,0-.6.3-1.2.3h-3.9c0-.3.3-.6.3-.9.9-1.8,1.8-3.6,2.4-4.5,1.2.3,2.7,0,3-.9.6-1.5-1.8-6.3-4.8-6-2.7,0-3.9.9-1.5,4.2a23.87,23.87,0,0,0-5.4,8.4h-1.8c-9.3-.3-18.3-1.2-27.6-2.1-9.3-1.2-18.3-2.1-27-4.5s-46.8-22.5-63.6-30c-8.4-3.6-17.1-7.2-24.9-12.3a50.47,50.47,0,0,1-10.5-9,25.2,25.2,0,0,1-5.7-9.9l1.5-.6ZM431.1,657c-44.1,0-87.9.3-132,.6l-132.6.9L33,659.7c.3-4.8.3-9.9.6-15l.6-15c.3-10.2.9-20.1,1.8-30.3.6-9.9,1.8-20.1,3-30a60.07,60.07,0,0,1,1.2-7.2c.3-1.2.6-2.4.9-3.3a7.22,7.22,0,0,1,1.8-2.4c3.3-3,8.1-5.4,12.6-7.2h.3l.3-.3c3.9-3,8.1-6,12.3-8.7a78.22,78.22,0,0,1,12.9-7.2c9-3.9,32.7-6.6,42.3-9.3.9,3.9,3,7.2,5.4,10.5a61.51,61.51,0,0,0,10.2,9.6c7.5,5.7,16.2,9.6,24.6,13.5,16.8,8.1,54.6,29.7,63.6,32.4a113.49,113.49,0,0,0,13.8,3c4.5.6,9.3,1.5,13.8,2.1,9.3,1.2,18.6,1.8,27.9,2.4h.6v.3c-.9,8.7,4.8,26.1,6,36.3s-3,20.4-.9,21,7.5,2.7,8.4-.6,1.8-32.7-2.7-41.7a35,35,0,0,1-3.9-15.3h5.1c.6,0,1.5-.3,2.4-.3,3.3-.9,5.4-3.6,6.9-5.7.3-.3.3-.6.6-.9,0,.3.3.3.3.6a23.07,23.07,0,0,0,5.4,5.4,22.72,22.72,0,0,0,5.4,2.7c-.3,1.5-.3,2.7-.6,3.9-1.2,5.7-6,9.3-3.6,21.6s9.3,18.3,10.2,23.1,1.2,8.7,3,8.7,7.2-2.1,8.1-4.8-2.4-10.5-6.9-16.2-8.4-13.8-8.4-18.3c0-3.9,2.7-11.1,3.9-17.1,20.1-1.8,33.9-5.4,42.6-6.9a247.78,247.78,0,0,0,25.8-6,178,178,0,0,0,24.9-9.6c8.1-3.9,15.9-8.4,22.8-14.4a125.17,125.17,0,0,0,17.4-20.4A183.62,183.62,0,0,0,468.6,522h.3l46.2,13.5,8.1,3.3c2.7,1.2,5.4,2.4,7.8,3.6a74.51,74.51,0,0,1,13.8,10.2l.3.3,1.8,1.8,1.8,2.7a24.53,24.53,0,0,1,2.7,5.7,62.63,62.63,0,0,1,3.3,12.9c1.2,9,1.8,18.3,2.4,27.6,1.2,17.4,2.1,35.1,3.3,52.5-43.5.6-86.4.6-129.3.9Z" transform="translate(-32.1 -40.17)"/><path id="SvgjsPath7907" class="cls-6" d="M519.3,541.5c-10.5-4.5-41.4-9-49.2-14.4,0,0,35.4,18.3,47.7,22.2s21.6,2.7,21.6,2.7a168.69,168.69,0,0,0-20.1-10.5Zm-97.8-73.8c0-9.6-7.2-22.2-12.3-28.5s-16.2-9.6-20.7-12.9c0,0,2.7,2.7,7.8,8.4s15,20.1,16.8,31.8-7.8,33.9-14.4,42.3-32.4,21.6-44.4,28.5c-11.7,7.2-22.5,16.8-36.3,24.6s-9,20.7-9,20.7a46.49,46.49,0,0,1,6.6-13.8c4.5-6,21.9-18.3,34.8-22.2s42.9-22.2,54.6-33.3C416.7,503.1,421.5,477.6,421.5,467.7Zm9.6,6.6s5.7,9,9.6,14.4c3.9,5.1,7.2,17.7-4.5,37.2s-45,39.6-45,39.6S419.7,552.6,429,546c9-6.6,26.7-28.5,27.9-33.9,1.2-5.1-.6-14.4-4.5-20.7C448.8,484.8,433.8,477,431.1,474.3ZM253.2,542.1c-11.7-9-34.2-39.6-43.2-51.3s-9.6-24-10.5-32.4c0,0-7.2,7.8-8.4,14.4s-1.2,17.7,9.6,26.7c11.1,9,52.5,54,68.1,61.2a136.5,136.5,0,0,1,27.9,17.7s-3.3-7.8-7.2-11.7c-3.9-4.5-24.6-15.6-36.3-24.6ZM180,556.2c11.7,4.5,43.5,18.9,51.9,22.2s45.3,9,45.3,9-35.4-11.7-47.4-16.8c-11.4-5.1-49.8-14.4-49.8-14.4Z" transform="translate(-32.1 -40.17)"/></g><g id="svga-group-head"><g id="svga-group-ears-left-move"><g id="svga-group-ears-left"><path id="SvgjsPath10521" class="cls-1" d="M205.59,241.08s-33.45-29.4-38.82-29.88c-4.62-.42-16.08,24-21.15,39.48a17.6,17.6,0,0,0,.75,12.6C151.23,274,162,296.4,171.66,307.62c0,0,8.16,1.77,10.74,1s22.74-17,24.81-23.31,2.49-33.9-1.62-44.22Z" transform="translate(-32.1 -40.17)"/><path id="SvgjsPath10522" class="cls-7" d="M208.47,252.57c.54,3.93.84,7.92,1,11.88s.18,7.95,0,11.94q-.15,3-.51,6a22.94,22.94,0,0,1-.6,3.06,10.26,10.26,0,0,1-1.38,2.88,49.15,49.15,0,0,1-7.41,8.4c-2.64,2.52-5.34,4.89-8.13,7.2-1.41,1.14-2.79,2.25-4.26,3.33-.72.54-1.47,1-2.22,1.56l-1.2.72a5,5,0,0,1-1.59.57,20.35,20.35,0,0,1-5.46-.27c-1.74-.24-3.45-.57-5.19-1l-.39-.09-.24-.3a112.08,112.08,0,0,1-11.22-16.95c-3.3-5.94-6.3-12.09-9.18-18.3l-4.23-9.33a18.4,18.4,0,0,1-1.62-10.38,22.78,22.78,0,0,1,1.32-5c.54-1.62,1.11-3.21,1.68-4.8,1.2-3.15,2.37-6.33,3.66-9.45a122.66,122.66,0,0,1,8.82-18.06,32.38,32.38,0,0,1,3-4.08,9.65,9.65,0,0,1,2-1.77,2.91,2.91,0,0,1,1.56-.48,4.85,4.85,0,0,1,1.41.36c3.18,1.41,5.61,3.42,8.25,5.28,5.16,3.87,10.11,8,15,12.27s9.66,8.58,14.43,13.14a53.15,53.15,0,0,1,2.73,11.67Zm-33.27-35a46.9,46.9,0,0,0-7.77-4.83,7.13,7.13,0,0,0-.78-.24,1.29,1.29,0,0,0-.6.21,6.1,6.1,0,0,0-1.53,1.32,27.5,27.5,0,0,0-2.82,3.72A144.65,144.65,0,0,0,152.37,235c-1.38,3-2.76,6.06-4,9.18-.6,1.56-1.2,3.12-1.77,4.71a22.91,22.91,0,0,0-1.35,4.8,17.15,17.15,0,0,0,1.65,9.78c1.41,3.09,2.94,6.15,4.47,9.15,3.06,6.06,6.36,12,9.78,17.73a119.41,119.41,0,0,0,11.28,16.26l-.63-.39c3.27.6,6.9,1.29,9.87,1a2.24,2.24,0,0,0,.84-.33l1-.66,2.1-1.5c1.41-1,2.79-2.13,4.17-3.24,2.76-2.22,5.43-4.56,8-7a55.08,55.08,0,0,0,7.17-7.83,8.82,8.82,0,0,0,1.14-2.16,22,22,0,0,0,.57-2.67c.27-1.89.51-3.81.63-5.73.3-3.87.42-7.8.45-11.7s-.12-7.86-.45-11.76a52.6,52.6,0,0,0-2-11.52c-10-7.86-20-16.05-30.24-23.58Z" transform="translate(-32.1 -40.17)"/><path id="SvgjsPath10523" class="cls-7" d="M206.37,266s-32.25-40.74-38.31-37.35-15.57,22.59-15.54,29c.06,9.42,10,25.14,15,29.88s11,7.65,19,5.82S206.37,266,206.37,266Z" transform="translate(-32.1 -40.17)"/><path id="SvgjsPath10524" class="cls-3" d="M181.83,265.92c-1.35-3.78-2.85-7.5-4.35-11.22s-3.17-7.35-5-10.92a95.06,95.06,0,0,0-5.91-10.35l-.24-.36-.24.36c-2.25,3.54-4.35,7.14-6.36,10.86-1,1.86-2,3.75-2.88,5.67s-1.71,3.93-2.52,5.94l-.12.3.12.36c1.38,4.23,2.88,8.37,4.41,12.54.75,2.07,1.62,4.11,2.49,6.15a51,51,0,0,0,3,6l.57.93.75-.69a19.55,19.55,0,0,0,2.61-3.06,25.66,25.66,0,0,0,2.07-3.51,17.73,17.73,0,0,0,1.8-8.22v-.18l-.06-.12c-1.5-3-3.09-5.88-4.65-8.82l-.15.09c1.26,3,2.49,6.09,3.78,9.09a17.5,17.5,0,0,1-2,7.23,21.84,21.84,0,0,1-3.72,5c-.78-1.47-1.5-3.06-2.19-4.68l-2.43-6.09c-1.59-4-3.09-8-4.56-12a115.33,115.33,0,0,1,4.56-11.46,76.42,76.42,0,0,1,5.88-10.53,72.9,72.9,0,0,1,5,10.17l4.62,11,4.68,11c1.56,3.66,3.15,7.35,4.8,11l.18-.09c-1.23-3.81-2.55-7.62-3.93-11.4Z" transform="translate(-32.1 -40.17)"/></g></g><g id="svga-group-ears-right-move"><g id="svga-group-ears-right"><path id="SvgjsPath10525" class="cls-1" d="M394.41,241.08s33.45-29.4,38.82-29.88c4.62-.42,16.08,24,21.15,39.48a17.6,17.6,0,0,1-.75,12.6C448.77,274,438,296.4,428.34,307.62c0,0-8.16,1.77-10.74,1s-22.74-17-24.81-23.31-2.49-33.9,1.62-44.22Z" transform="translate(-32.1 -40.17)"/><path id="SvgjsPath10526" class="cls-7" d="M394.32,241c4.74-4.56,9.51-8.91,14.43-13.14s9.84-8.4,15-12.27c2.64-1.89,5.07-3.87,8.25-5.28a6.46,6.46,0,0,1,1.41-.36,3.09,3.09,0,0,1,1.56.48,7.74,7.74,0,0,1,2,1.77,32.38,32.38,0,0,1,3,4.08,127.29,127.29,0,0,1,8.82,18.06c1.29,3.12,2.46,6.27,3.66,9.45.57,1.59,1.14,3.18,1.68,4.8a24.58,24.58,0,0,1,1.32,5A18.4,18.4,0,0,1,453.84,264l-4.23,9.33c-2.91,6.18-5.88,12.33-9.18,18.3a109.16,109.16,0,0,1-11.22,16.95l-.24.3-.39.09c-1.74.39-3.45.69-5.19,1a23.24,23.24,0,0,1-5.46.27,5,5,0,0,1-1.59-.57l-1.2-.72c-.75-.51-1.5-1-2.22-1.56-1.44-1.08-2.85-2.19-4.26-3.33-2.79-2.28-5.49-4.68-8.13-7.2a50.31,50.31,0,0,1-7.41-8.4,10.2,10.2,0,0,1-1.38-2.88,30.52,30.52,0,0,1-.6-3.06c-.24-2-.42-4-.51-6-.21-4-.21-8,0-11.94s.45-8,1-11.88A45.3,45.3,0,0,1,394.32,241Zm.18.18a49,49,0,0,0-2,11.52c-.3,3.9-.45,7.83-.45,11.76s.18,7.83.45,11.7c.15,2,.36,3.87.63,5.73.18.93.33,1.86.57,2.67a7.91,7.91,0,0,0,1.14,2.16,56.75,56.75,0,0,0,7.17,7.83c2.58,2.43,5.28,4.77,8,7,1.38,1.11,2.76,2.19,4.17,3.24l2.1,1.5,1.05.66a2.24,2.24,0,0,0,.84.33c3,.3,6.6-.39,9.87-1l-.63.39a119.41,119.41,0,0,0,11.28-16.26c3.42-5.76,6.72-11.67,9.78-17.73,1.53-3,3.06-6.06,4.47-9.15a17.15,17.15,0,0,0,1.65-9.78,22.41,22.41,0,0,0-1.35-4.8c-.57-1.59-1.14-3.15-1.77-4.71-1.2-3.12-2.58-6.18-4-9.18a142.38,142.38,0,0,0-9.33-17.31,27.5,27.5,0,0,0-2.82-3.72,8.39,8.39,0,0,0-1.53-1.32,1.31,1.31,0,0,0-.6-.21,7.13,7.13,0,0,0-.78.24,46.9,46.9,0,0,0-7.77,4.83C414.57,225.06,404.55,233.25,394.5,241.17Z" transform="translate(-32.1 -40.17)"/><path id="SvgjsPath10527" class="cls-7" d="M393.63,266s32.25-40.74,38.31-37.35,15.57,22.59,15.54,29c-.06,9.42-10,25.14-15,29.88s-11,7.65-19.05,5.82S393.63,266,393.63,266Z" transform="translate(-32.1 -40.17)"/><path id="SvgjsPath10528" class="cls-3" d="M445.62,255.93c-.78-2-1.56-4-2.52-5.94s-1.86-3.81-2.88-5.67c-2-3.72-4.14-7.32-6.36-10.86l-.24-.36-.24.36a103.54,103.54,0,0,0-5.91,10.35c-1.8,3.54-3.42,7.2-5,10.92s-3,7.44-4.35,11.22-2.7,7.59-3.84,11.43l.18.09c1.65-3.63,3.21-7.32,4.8-11l4.68-11,4.62-11a72.9,72.9,0,0,1,5-10.17,78.22,78.22,0,0,1,5.88,10.53,111.1,111.1,0,0,1,4.56,11.46c-1.5,4-3,8-4.56,12l-2.43,6.09c-.69,1.59-1.41,3.21-2.19,4.68a21.84,21.84,0,0,1-3.72-4.95,17.06,17.06,0,0,1-2-7.23c1.29-3,2.52-6.06,3.78-9.09l-.15-.09c-1.56,2.94-3.15,5.85-4.65,8.82l-.06.12v.18a17.73,17.73,0,0,0,1.8,8.22,24,24,0,0,0,2.07,3.51,19.31,19.31,0,0,0,2.61,3.06l.75.69.57-.93a56,56,0,0,0,3-6c.87-2,1.71-4.08,2.49-6.15,1.53-4.14,3-8.31,4.41-12.54l.12-.36-.21-.33Z" transform="translate(-32.1 -40.17)"/></g></g><g id="svga-group-faceshape-wrap"><g id="svga-group-faceshape-single"><path id="SvgjsPath8531" class="cls-1" d="M421.2,164.7c-6.6-30-18.9-48-45.6-62.4C347.7,87.3,300,87.9,300,87.9s-47.7-.6-75.6,14.4c-26.4,14.4-39,32.4-45.6,62.4-2.7,12,0,40.8,0,40.8s4.8,36.9,5.1,54.6c.6,17.4,4.2,54,6.6,75.3,2.94,21.24,4.38,23,4.38,23,36.75,43.2,68.07,76,77.22,83.7,8.85,7.5,43.2,7,53,1,10.38-6.36,28.32-25.26,79.59-83,0,0,.81-3.15,3.21-24.45s6.39-48.93,7.62-75.57c.6-17.4,5.1-54.6,5.1-54.6.3-.3,3.3-28.8.6-40.8Z" transform="translate(-32.1 -40.17)"/><path id="SvgjsPath8532" class="cls-3" d="M421.2,164.7c-6.6-30-18.9-48-45.6-62.4C347.7,87.3,300,87.9,300,87.9s-47.7-.6-75.6,14.4c-26.4,14.4-39,32.4-45.6,62.4-2.7,12,0,40.8,0,40.8s4.8,36.9,5.1,54.6c.6,17.4,4.2,54,6.6,75.3,2.94,21.24,4.38,23,4.38,23,36.75,43.2,68.07,76,77.22,83.7,8.85,7.5,43.2,7,53,1,10.38-6.36,28.32-25.26,79.59-83,0,0,.81-3.15,3.21-24.45s6.39-48.93,7.62-75.57c.6-17.4,5.1-54.6,5.1-54.6.3-.3,3.3-28.8.6-40.8Zm-.09,30.57-1,9.72-.18.39c-1.65,12.87-3.39,25.71-4.77,38.61-.72,6.42-1.23,13-1.68,19.41s-1.17,12.84-1.89,19.26c-1.47,12.84-3.42,25.62-5.16,38.46-.9,6.39-1.8,12.9-2.58,19.29l-1.29,9.6-.69,4.77-.39,2.34-.24,1.23-32.58,36.06c-11.16,12.12-22.23,24.51-34,35.76a113,113,0,0,1-9,7.8c-.75.6-1.53,1.08-2.31,1.62a14.47,14.47,0,0,1-2.13,1.11,30.17,30.17,0,0,1-5.28,1.56,92.8,92.8,0,0,1-23.67,1.53,63,63,0,0,1-11.58-1.68,24.22,24.22,0,0,1-5-1.83c-.3-.21-1.53-1-1.92-1.38-.75-.63-1.47-1.29-2.22-2-5.94-5.49-11.7-11.46-17.46-17.34-11.49-11.82-22.74-23.94-33.81-36.18L203.76,365l-4.08-4.62-2-2.31-.51-.57a8.51,8.51,0,0,1-.6-1.26A118.66,118.66,0,0,1,194,344.37c-1.5-8.1-2.37-16.23-3.36-24.48s-2-16.41-2.7-24.66-1.53-16.47-2.1-24.69-.69-16.5-1.44-24.78S182.94,229.26,182,221s-2-16.41-2.28-24.63a197.27,197.27,0,0,1,.18-24.57,46.71,46.71,0,0,1,.84-5.91c.42-1.92,1-3.93,1.47-5.91,1.11-3.93,2.34-7.8,3.81-11.55a77.19,77.19,0,0,1,11.79-20.85,78.74,78.74,0,0,1,17.64-16,119.32,119.32,0,0,1,10.32-6.24,84.49,84.49,0,0,1,10.92-4.74,141,141,0,0,1,23.49-5.91,235.13,235.13,0,0,1,24.27-3A229.83,229.83,0,0,1,309,91c16.35.42,32.82,1.89,48.6,6.06a94.35,94.35,0,0,1,42.09,24,74.29,74.29,0,0,1,13.71,20.31A118.73,118.73,0,0,1,421,164.79a59.82,59.82,0,0,1,1,10.11c.09,3.39,0,6.81-.09,10.2-.3,3.39-.48,6.78-.78,10.17Z" transform="translate(-32.1 -40.17)"/></g></g><g id="svga-group-mouth-single-move"><g id="svga-group-mouth-single"><path id="SvgjsPath8684" class="cls-8" d="M356.25,363.6a54.09,54.09,0,0,1-15.87,4.71c-14.34,1.47-25,2.61-38.25,7.59-5.4,2.1-8.1,2.7-13.5,1.2a94.45,94.45,0,0,0-12.6-2.7c-6.3-1-12.54.39-18.87.6-3.6.12-7.32-.87-11.52-1.86-2.1,0-3.75.66.42,2.91,9.33,5,15.36,3.6,25.86,6,7.2,1.5,18.6,10.32,25.8,7.92,9-3,19.71-9.69,28.71-12.69,9.9-3,14.28-1.53,28.2-10.2,1.95-1.35,3-4.11,1.62-3.48Z" transform="translate(-32.1 -40.17)"/></g></g><g id="svga-group-eyes-left-move"><g id="svga-group-eyes-left"><g id="svga-group-eyesback-left"><path id="SvgjsPath9026" class="cls-9" d="M240.6,222.6c22.5,0,40.5,17.4,40.5,39s-18,39-40.5,39-40.5-17.4-40.5-39S218.1,222.6,240.6,222.6Z" transform="translate(-32.1 -40.17)"/></g><g id="svga-group-eyesiriswrapper-left"><g id="svga-group-eyesiriscontrol-left"><g id="svga-group-eyesiris-left"><path id="SvgjsPath9409" class="cls-10" d="M240.6,244.8a16.8,16.8,0,1,1-16.8,16.8A16.77,16.77,0,0,1,240.6,244.8Z" transform="translate(-32.1 -40.17)"/><path id="SvgjsPath9410" d="M240.6,252.6a9,9,0,1,1-9,9A8.84,8.84,0,0,1,240.6,252.6Z" transform="translate(-32.1 -40.17)"/><path id="SvgjsPath9411" class="cls-9" d="M238.5,254.4l-1.8-1.8a3.4,3.4,0,0,0-4.8,4.8l1.8,1.8a3.24,3.24,0,0,0,2.1.9,2.34,2.34,0,0,0,2.1-.9c1.8-1.8,1.8-3.6.6-4.8Zm8.1,15.3a2.25,2.25,0,0,0,0-4.5C243.9,265.2,243.9,269.7,246.6,269.7Z" transform="translate(-32.1 -40.17)"/></g></g></g><g id="svga-group-eyesfront-left"><path id="SvgjsPath9034" class="cls-1" d="M240.6,221.1c-23.4,0-42.3,18.3-42.3,40.8s18.9,40.8,42.3,40.8,42.3-18.3,42.3-40.8S264,221.1,240.6,221.1Zm-14.7,60.6c-14.4-5.1-19.2-20.1-21.6-30.3-2.7-10.5,41.4-10.5,52.5-1.2,11.4,9,15.9,21.9,16.5,28.8C273.6,278.7,240.3,286.8,225.9,281.7Z" transform="translate(-32.1 -40.17)"/><path id="SvgjsPath9035" d="M273.3,277.5a17.3,17.3,0,0,0-.9-4.2l-.9-2.7c-1.5-5.7-4.5-13.5-9-18.6-3.6-3.9-12.3-13.2-27-13.2s-24.6,4.8-26.4,5.7A9.12,9.12,0,0,0,207,246a7.77,7.77,0,0,0-3.3,3,2.7,2.7,0,0,0-.3,1.5.93.93,0,0,0-.3.6h.3a1.8,1.8,0,0,0,.3,1.2,8.76,8.76,0,0,1,.6,2.7l1.8,5.4a45.14,45.14,0,0,0,4.8,10.2,33.5,33.5,0,0,0,7.5,8.4,26.57,26.57,0,0,0,10.2,4.8c7.5,1.5,15,.9,22.5,0a135.06,135.06,0,0,0,21.9-4.5,1.41,1.41,0,0,0,.3-1.8Zm0,1.2c-7.2,1.2-14.7,2.4-21.9,3.3-3.6.3-7.5.6-11.1.6a68.86,68.86,0,0,1-11.1-.6,25,25,0,0,1-17.4-12,43.07,43.07,0,0,1-4.8-9.9,36.27,36.27,0,0,1-1.5-5.4,8.76,8.76,0,0,1-.6-2.7c0-.6-.3-.9-.3-1.2,4.2-1.2,19.8-5.7,31.5-5.7,13.5.3,23.7,10.8,27.9,15.3,3.6,3.3,9,15.3,9.3,18.3Z" transform="translate(-32.1 -40.17)"/></g></g></g><g id="svga-group-eyes-right-move"><g id="svga-group-eyes-right"><g id="svga-group-eyesback-right"><path id="SvgjsPath9027" class="cls-9" d="M359.4,222.6c22.5,0,40.5,17.4,40.5,39s-18,39-40.5,39-40.5-17.4-40.5-39S336.9,222.6,359.4,222.6Z" transform="translate(-32.1 -40.17)"/></g><g id="svga-group-eyesiriswrapper-right"><g id="svga-group-eyesiriscontrol-right"><g id="svga-group-eyesiris-right"><path id="SvgjsPath9412" class="cls-10" d="M359.4,246.9a14.7,14.7,0,1,1-14.7,14.7A14.72,14.72,0,0,1,359.4,246.9Z" transform="translate(-32.1 -40.17)"/><path id="SvgjsPath9413" d="M359.4,253.8a7.8,7.8,0,1,1-7.8,7.8A7.94,7.94,0,0,1,359.4,253.8Z" transform="translate(-32.1 -40.17)"/><path id="SvgjsPath9414" class="cls-9" d="M357.6,255.3c-.6-.6-.9-1.2-1.5-1.5a2.72,2.72,0,0,0-2.1-.9,3.24,3.24,0,0,0-2.1.9,2.72,2.72,0,0,0-.9,2.1,3.24,3.24,0,0,0,.9,2.1c.6.6,1.2.9,1.5,1.5a2.72,2.72,0,0,0,2.1.9,3.24,3.24,0,0,0,2.1-.9c.9-1.5.9-3.3,0-4.2Zm7.2,13.5c2.4,0,2.7-3.9,0-3.9C362.4,264.6,362.4,268.8,364.8,268.8Z" transform="translate(-32.1 -40.17)"/></g></g></g><g id="svga-group-eyesfront-right"><path id="SvgjsPath9036" class="cls-1" d="M359.4,221.1c-23.4,0-42.3,18.3-42.3,40.8s18.9,40.8,42.3,40.8,42.3-18.3,42.3-40.8-18.9-40.8-42.3-40.8Zm15.9,58.5c-13.2,5.4-45,.3-45,.3.3-5.7,3.9-17.4,14.1-26.1s51.6-11.4,49.8-2.1c-2.1,9.3-5.7,22.8-18.9,27.9Z" transform="translate(-32.1 -40.17)"/><path id="SvgjsPath9039" d="M394.8,252.3s0-3.9-2.7-5.1c-1.8-.6-13.2-3-27.3-2.1a37.67,37.67,0,0,0-18.3,6.3,16.75,16.75,0,0,0-2.4,1.5,44.46,44.46,0,0,0-7.2,7.8c-3.9,5.7-6.9,12.3-6.9,19.2a16.15,16.15,0,0,0,.3,2.4s.3-.9.6-2.1a142.82,142.82,0,0,0,19.8,2.4c3.6.3,6.9.3,10.2.3a55.83,55.83,0,0,0,10.2-1.2c3.3-.6,6.6-2.4,9.6-4.2a42.63,42.63,0,0,0,7.2-7.5,53.17,53.17,0,0,0,4.5-9.3c.6-1.5.9-3.3,1.5-5.1l.6-2.4c0-.3,0-.3.3-.6v-.3Zm-1.2.3L393,255c-.3,1.8-.9,3.3-1.2,5.1a51.91,51.91,0,0,1-4.2,9.3,25,25,0,0,1-16.5,10.8c-1.8.3-3.3.6-5.1.9-1.8,0-3.3.3-5.1.3a57.91,57.91,0,0,1-10.2,0c-6.6-.3-13.2-.6-19.8-1.2,1.2-4.5,4.5-13.8,7.2-17.1,3.6-4.5,12.6-13.5,25.5-14.7,10.8-.9,25.8,2.4,30,3.6v.6Z" transform="translate(-32.1 -40.17)"/></g></g></g><g id="svga-group-eyebrows-left-move"><g id="svga-group-eyebrows-left-rotate"><g id="svga-group-eyebrows-left"><path id="SvgjsPath7883" class="cls-11" d="M278.4,208.5a131.38,131.38,0,0,1-3,21.3s-48.3-13.8-54-14.4-25.2,12.3-25.2,12.3l19.5-29.4,11.4.9-1.8-2.7,24,5.7,22.5,3.6,1.5,8.4,1.2-8.4,1.5,8.4,2.4-5.7Z" transform="translate(-32.1 -40.17)"/><path id="SvgjsPath7884" class="cls-12" d="M278.4,208.5l-.3.3a9,9,0,0,1-1.2,2.4,14.63,14.63,0,0,0-.9,2.1l-1.2-7.5-.6-2.7-.6,2.7-.9,4.8-.9-4.8v-.6h-.6l-11.7-2.1-5.7-.9c-1.8-.3-3.9-.6-5.7-.9-7.8-1.8-15.3-3.6-23.1-5.4l-2.4-.6,1.5,2.4.9.3-9.3-.6h-.6l-.3.3c-3.3,5.1-6.3,9.9-9.6,15l-9.6,15-1.2,1.8,1.8-1.2a106.74,106.74,0,0,1,18-10.2c1.5-.6,3.3-1.2,4.8-1.8a6.61,6.61,0,0,1,2.4-.3l1.2.3,1.2.3c3.3.9,6.9,1.8,10.2,2.7,6.9,2.1,13.5,3.9,20.4,5.7s13.5,3.6,20.4,5.4l.6.3v-.6c.9-3.6,1.2-7.2,1.8-10.8.3-1.8.3-3.6.6-5.4a8.31,8.31,0,0,1,.3-2.7v-2.4l.3-.3Zm-.3,1.2-.3,1.2-.3,2.7-.9,5.4c-.6,3.3-1.2,6.6-2.1,9.9-6.6-2.1-13.2-3.9-19.8-6-6.9-2.1-13.5-3.9-20.4-5.4-3.3-.9-6.9-1.5-10.2-2.4l-1.2-.3-1.2-.3a8.31,8.31,0,0,0-2.7.3c-1.8.6-3.3,1.2-4.8,1.8a128.56,128.56,0,0,0-16.5,9.3l8.7-12.6c3.3-4.8,6.6-9.6,9.6-14.1l10.8.9,2.1.3-1.2-2.1-.3-.3c6.9,1.8,13.8,3.3,20.7,4.8l11.7,1.8,11.1,1.5,1.5,7.5.6,3.6.6-3.6.9-6,1.2,5.7.3.9.3-.9.9-2.7a20.67,20.67,0,0,1,.9-2.4v1.5Zm-8.7,14.1a63.16,63.16,0,0,0-.6-7.5c-.3-1.2-.3-2.4-.6-3.6a16.91,16.91,0,0,0-1.2-3.6,14.61,14.61,0,0,1,.3,3.6,15.06,15.06,0,0,0,.6,3.6A66.34,66.34,0,0,0,269.4,223.8Zm-3.6-5.1c-.6-.9-.9-2.1-1.5-3l-1.5-3-3-5.7-.6-1.5v1.8c0,4.8,0,9.6.3,14.4l.9-.3c-.9-1.2-1.8-2.7-2.7-3.9l-2.7-3.6a31.77,31.77,0,0,0-3-3.6,17.19,17.19,0,0,0-3.3-3.3c.9,1.2,2.1,2.4,3,3.6l2.7,3.6a43.89,43.89,0,0,1,2.7,3.9,27.39,27.39,0,0,1,2.4,3.9l.9,1.5v-1.8c0-4.8-.3-9.6-.3-14.4l-.6.3,3.3,5.7,1.8,2.7a5.39,5.39,0,0,0,1.2,2.7Z" transform="translate(-32.1 -40.17)"/></g></g></g><g id="svga-group-eyebrows-right-move"><g id="svga-group-eyebrows-right-rotate"><g id="svga-group-eyebrows-right"><path id="SvgjsPath7885" class="cls-11" d="M321.6,219.6a85.78,85.78,0,0,0,6.9,16.5s44.7-18.3,50.4-19.5,27,6,27,6l-24.6-20.7-10.8,2.4,1.2-2.4L349.2,210l-21.3,6v6.9l-2.7-6.6v6.9l-3.6-3.6Z" transform="translate(-32.1 -40.17)"/><path id="SvgjsPath7886" class="cls-12" d="M406.2,222.3l-12-10.5c-3.9-3.6-8.1-6.9-12.3-10.5l-.3-.3h-.3l-9,1.8.3-.6,1.2-2.1-2.4.9c-7.2,2.4-14.4,5.1-21.6,7.8l-5.4,1.8-5.4,1.8-11.1,3.3h-.6v4.5l-1.8-3.9-.9-2.1v2.1l.3,6c-.3-.6-.9-.9-1.2-1.5-.6-.6-.9-1.2-1.5-1.8l-.3-.3v.9l.3.6.3,1.2a5.56,5.56,0,0,1,.6,2.1c.6,1.5.9,2.7,1.5,4.2.9,2.7,2.4,5.7,3.6,8.4l.3.6.6-.3c6.3-2.4,12.6-4.8,19.2-7.5,6.3-2.4,12.6-5.1,18.9-7.5,3.3-1.2,6.3-2.4,9.6-3.6l1.2-.3,1.2-.3a6.61,6.61,0,0,1,2.4-.3,29.56,29.56,0,0,1,5.1.6,161.85,161.85,0,0,1,19.8,5.4l1.8.6-2.1-1.2ZM381.3,216a8.31,8.31,0,0,0-2.7.3l-1.2.3-1.2.3a90.16,90.16,0,0,0-9.6,3.3c-6.6,2.4-12.9,4.8-19.2,7.2s-12.3,5.1-18.3,7.8a42.73,42.73,0,0,1-3.6-7.5c-.6-1.2-1.2-2.7-1.8-4.2l-.9-2.1-.3-.9-.3-.6v-.3a6.28,6.28,0,0,1,1.2,1.8,12.7,12.7,0,0,1,1.5,2.1l.6.6v-5.7l1.8,4.5,1.2,2.7v-9.3l10.8-3c3.6-.9,7.5-2.1,11.1-3,6.6-2.4,12.9-4.5,19.5-6.9v.3l-.9,1.8,2.1-.6,10.5-2.4c3.9,3.3,8.1,6.6,12,9.9l10.8,8.7a176.18,176.18,0,0,0-18-4.8,14.64,14.64,0,0,1-5.1-.3Zm-48,14.1a20.41,20.41,0,0,1-.6-6v-3a5.41,5.41,0,0,1,.6-3c0,.9.3,2.1.3,3s.3,2.1.3,3C333.6,226.2,333.6,228.3,333.3,230.1Zm2.7-4.5a20.67,20.67,0,0,1,.9-2.4l.9-2.4,1.8-5.1.6-1.2.3,1.2c.9,3.9,1.5,7.8,2.4,11.4H342l1.8-3.6a12.39,12.39,0,0,1,2.1-3.3c.6-1.2,1.5-2.1,2.1-3.3a11.75,11.75,0,0,1,2.4-3,12.39,12.39,0,0,0-2.1,3.3,20.18,20.18,0,0,1-2.1,3.3l-1.8,3.6-1.8,3.6-.6,1.2-.3-1.2c-.9-3.9-1.5-7.8-2.4-11.4h.9l-2.1,4.8-1.2,2.4a4,4,0,0,1-.9,2.1Z" transform="translate(-32.1 -40.17)"/></g></g></g><g id="svga-group-nose-single-move"><g id="svga-group-nose-single"><path id="SvgjsPath8072" class="cls-1" d="M297.3,349.5c2,.36,13.59-9.93,13.59-9.93s6.18,4.77,10.86,4.29a11.73,11.73,0,0,0,9-5.88c1.68-2.64-2.67-9.3-5.34-13.23s-10.62-15.66-12.27-21.06c-3.21-10.35-9-14.28-14.76-13.92s-12.12,4.56-13.8,10.32-2.16,12.84-5.4,17.28-10,12-10.68,14.16-.33,8.4,3.72,10.68c5.19,2.91,12.9-1.53,12.9-1.53s9.54,8.34,12.18,8.82Z" transform="translate(-32.1 -40.17)"/><path id="SvgjsPath8073" class="cls-3" d="M330.84,332.61a25.26,25.26,0,0,0-5.43-7.83,35.75,35.75,0,0,1,4.17,8.28,9.19,9.19,0,0,1,.48,4.26,4.4,4.4,0,0,1-.78,1.8,7.3,7.3,0,0,1-1.41,1.62,9.75,9.75,0,0,1-8,2.34,17.54,17.54,0,0,1-4.38-1.17,28.59,28.59,0,0,1-3.87-1.86,43.94,43.94,0,0,0,3.06-5.28c-2.91,2.73-5.67,5.49-8.61,7.92A30.86,30.86,0,0,1,301.5,346a8.92,8.92,0,0,1-4.53,1.56,3,3,0,0,1-.93-.12,4.51,4.51,0,0,1-.9-.48c-.72-.45-1.47-1.08-2.22-1.65-1.5-1.17-3-2.46-4.47-3.69-3-2.52-6-5.07-9.21-7.44a64.68,64.68,0,0,0,5,6.72,23.67,23.67,0,0,1-4.59,1.56,9.26,9.26,0,0,1-5.52-.3,8.68,8.68,0,0,1-4.62-8.82,5.12,5.12,0,0,1,.9-2.22c.51-.78,1.08-1.59,1.68-2.37,1.2-1.56,2.46-3.06,3.78-4.56l2-2.22a29.54,29.54,0,0,0,2-2.52,33.28,33.28,0,0,0,3.21-5.49,24.86,24.86,0,0,0,1.77-6.18c.36-2,.66-4.05.9-6.06.45-4.05.81-8.07.93-12.12a102.23,102.23,0,0,0-1.53-24.21,206.07,206.07,0,0,1-1.2,24c-.45,4-.87,7.95-1.5,11.88-.3,2-.6,3.93-1,5.88a20.7,20.7,0,0,1-1.62,5.37,27.85,27.85,0,0,1-2.82,4.95,18.84,18.84,0,0,1-1.71,2.22c-.69.78-1.35,1.53-2,2.34-1.29,1.59-2.55,3.21-3.72,4.89-.6.84-1.17,1.71-1.71,2.64a8.21,8.21,0,0,0-1.11,3.42,10.52,10.52,0,0,0,6.75,10.65,10.19,10.19,0,0,0,6.36-.33,19.71,19.71,0,0,0,4.47-2.31c.72.84,1.41,1.71,2.13,2.52a56.63,56.63,0,0,0,4.23,4.26,20.7,20.7,0,0,0,2.46,1.95,7.54,7.54,0,0,0,1.71.9,6.52,6.52,0,0,0,2,.33,11.56,11.56,0,0,0,6.42-2.28,26.66,26.66,0,0,0,4.65-4.11,41.35,41.35,0,0,0,3.63-4.59,17.42,17.42,0,0,0,8,4.35,11.62,11.62,0,0,0,5,0,10.31,10.31,0,0,0,4.47-2.4,10,10,0,0,0,1.62-1.95,5.27,5.27,0,0,0,1-2.52,9.78,9.78,0,0,0-.87-4.8Z" transform="translate(-32.1 -40.17)"/></g></g><g id="svga-group-hair-front"><path id="SvgjsPath8107" class="cls-13" d="M294.3,61.2S272.7,43.5,243.6,42l5.1,9s-43.8-1.8-82.8,33.3l10.8,6.6s-28.5,25.5-33,63a433,433,0,0,0-1.5,72.3s13.5-4.2,17.4-8.1l4.8-13.2,9.9,30.9L192,252.3s-6-25.5-5.1-43.8,1.8-23.4,1.8-23.4l1.8,13.5s3.6,12.3,15,16.5c0,0-5.1-36.3,1.5-53.1,0,0,0,26.4,8.1,34.8,0,0,6.9-4.8,9.3-9s5.1-15.6,7.5-23.1,9.3-28.2,16.5-35.1c6.9-6.9,15-15.6,15-15.6s20.1,6,28.2,16.8c0,0,12.3-7.5,21.6-10.8s22.2-6.9,22.2-6.9,15.6,22.2,19.8,36.3,8.1,33,8.1,37.5a78,78,0,0,0,.6,9s7.5-3.3,11.4-8.1c0,0,10.2-1.5,15.6-6,5.1-4.8,11.7-13.2,10.2-40.8,0,0,3.6,1.8,6,17.4s5.1,42.6,1.8,57.3c0,0,4.2-.9,9.3-5.1,0,0-3.6,29.1,0,40.8,0,0,7.5-13.5,12.6-20.1s9.3-18.9,9.3-18.9l3.3-15.6,13.2-.6s-.6-23.4-3.3-33.3-8.4-41.4-21.3-59.7-35.7-30.9-39-33-44.7-21.6-83.1-9.3c0,0,18.9-15,47.4-9s32.4,15.6,32.4,15.6l6.6,2.7,4.8-1.5s-13.5-20.1-38.4-24.9S310.8,45,294.3,61.2Z" transform="translate(-32.1 -40.17)"/><path id="SvgjsPath8108" class="cls-14" d="M261.9,114.3c-10.8,8.1-18.9,19.2-24.6,31.5-6.3,13.8-6.9,29.1-14.4,41.4,3-13.8,5.4-27.6,9.3-41.1,4.2-14.7,8.1-33.6,20.4-43.8.9-.6-.3-1.8-.9-1.5-12,5.7-15.3,22.8-18.6,34.2-5.4,17.7-10.2,36.3-11.4,54.6a36.07,36.07,0,0,1-5.7,6.3v.3c-1.5-5.7-3.3-11.4-4.2-17.1-1.2-7.5-1.5-14.7-2.1-21.9a107.49,107.49,0,0,1,2.7-13.5c0-.6-.6-.9-.9-.3-1.5,4.2-2.4,8.7-3.6,12.9v.9a156,156,0,0,0-3.9,31.5c0,3,2.1,23.7,1.2,24-3,1.5-11.1-10.2-12.9-12.9-.6-.6-1.5,0-.9.6,3.9,7.8,8.4,12.9,15.3,18.6a1.45,1.45,0,0,0,2.4-1.2,181.17,181.17,0,0,1-.9-45.9,77.17,77.17,0,0,0,7.8,27.6c.3.6,1.2.3,1.2-.6,0-.3-.3-.6-.3-.9a.56.56,0,0,0,.9,0c11.1-7.5,13.8-19.5,16.8-32.1,5.1-20.4,14.7-35.4,29.4-50.1-.3-.9-1.2-2.1-2.1-1.5ZM248.1,50.4c.6.6,1.8,0,1.2-.9a38.21,38.21,0,0,0-3.9-5.7c18.3,2.4,33.3,9.3,48.9,18.9.9.6,1.8-.6,1.2-1.5C280.8,48,261,42,241.8,40.2c-1.5-.3-1.8,1.8-1.2,2.7A59,59,0,0,0,248.1,50.4ZM163.8,87.6A56.18,56.18,0,0,0,174,90c1.2.3,1.8-1.5.6-2.1-11.7-4.2.9-9.6,7.2-13.8a163.47,163.47,0,0,1,18.6-10.5c14.7-6.6,29.7-9.3,45.3-12,.9,0,.6-1.5-.3-1.5-30.6-.3-59.7,15.3-82.5,34.8a1.78,1.78,0,0,0,.9,2.7Zm24.6,109.8c.3-.6.9-1.2,1.2-1.8l.9,2.7c.3,1.2,2.1.6,1.8-.6-.9-5.1-1.8-10.2-1.5-15.6,0-1.2-2.1-1.5-2.4-.3-3.9,22.8-3.3,45.9,3.3,68.1-2.1-2.4-4.2-4.2-6.6-6.6a75.05,75.05,0,0,0-8.7-8.1.91.91,0,0,0-1.2,0c-3-10.5-6.6-20.7-9.9-31.2a.94.94,0,0,0-1.8,0c-1.2,4.2-2.7,8.4-3.6,12.6a1.8,1.8,0,0,0-1.2.3c-3.9,3.6-12.9,11.7-15.9,5.7-.9-2.1-.3-6.9-.6-9.3-.3-6.9-.6-13.8-.6-20.7a198,198,0,0,1,5.4-48c11.1-42.6,40.8-66.3,81.3-79.8.6-.3.3-1.2-.3-.9-37.2,7.5-67.5,33-80.1,68.7-10.8,30.3-9.6,63-8.1,94.5a1.68,1.68,0,0,0,1.8,1.5,36.57,36.57,0,0,0,18.6-9.3c.6-.6.6-1.2.3-1.5,1.2-3.3,2.4-6.6,3.3-9.9,3,9.9,5.7,20.1,9,30a1.27,1.27,0,0,0,2.1.3,85,85,0,0,0,7.2,7.5,107.08,107.08,0,0,0,8.4,8.1.91.91,0,0,0,1.2,0c.3.6,1.2.3,1.2-.6-3.6-15-6.3-30-6-45.6a59.79,59.79,0,0,0,1.5-10.2ZM396.6,71.1c1.8,0,3.6-.3,5.1-.3a1.62,1.62,0,0,0,1.2-2.7c-28.2-32.1-75.6-36.6-108-7.8-.6.3.3,1.2.6.9,16.5-11.7,35.7-18.9,56.1-17.1A69.76,69.76,0,0,1,381.3,54c4.5,2.7,10.2,5.7,13.2,10.2,2.7,4.2,3.3,4.2-.3,4.5-.3-.3-.6-.3-.9-.6-22.8-21.9-58.2-24.6-84.6-7.2-.6.3,0,1.2.6.9,25.8-14.1,51.9-12.9,75,2.7-23.1-8.7-50.1-8.4-73.5-3a.64.64,0,0,0,.3,1.2c28.5-5.1,52.5-.9,79.2,7.2a1.42,1.42,0,0,0,1.2,1.8h3.9a.56.56,0,0,0,0,.9c24.3,15.3,40.5,35.7,49.5,63,4.8,15,7.5,30.3,9.3,45.9.6,4.2,2.1,9.3.3,12.9.6-1.5-7.2,2.4-9.3,3.6-.6.6,0,2.1.9,1.8h11.1a1.76,1.76,0,0,0,2.1-1.5c-5.1-47.4-14.1-105.9-62.7-127.2Zm48.3,126.6c3.3-20.1,1.2-42-8.1-59.7a.67.67,0,0,0-1.2.6c6.9,26.4,9.6,49.2,3.3,75.9-7.5,10.8-13.5,22.8-20.1,33.9-1.5-12.6-.9-24.6.9-37.2,10.2-8.4,17.4-19.5,17.7-33.6,0-1.2-1.8-1.5-1.8-.3a59,59,0,0,1-6.6,18.9c-.6.9-4.5,5.7-8.4,10.2-.3-.6-1.5-.9-1.8,0s-.3,1.5-.6,2.4c-3.3,3.3-6.3,5.7-7.2,4.8-1.8-1.8.3-9.3.3-11.7a154.35,154.35,0,0,0,.3-20.4c-.9-24.3-7.2-48.6-19.2-69.6a.67.67,0,0,0-1.2.6c.3.6.3,1.2.6,1.5v.3c3.9,12.9,7.8,25.2,7.8,38.7,0,8.4-.6,19.5-6.9,25.8-4.2,4.2-10.2,6-16.2,7.8,6.3-10.2,6.3-24,3.6-36.3,0-.6-.6-.6-.9-.6,0-18.9-14.4-41.4-31.2-49.8a1.1,1.1,0,0,0-.9.3c-19.8,4.8-39.6,15.3-54.3,29.7-7.2-7.2-17.1-14.1-27.3-15.6-1.5-.3-1.8,1.5-.6,2.1,10.2,4.2,18.9,8.1,26.7,15.6.9.9,1.8,0,2.1-.6a120.91,120.91,0,0,1,21.9-10.2c3.6-1.2,7.2-2.4,11.1-3.6,2.4-.9,6.9-2.7,9.3-2.7v.6c15,25.8,25.2,50.1,26.4,80.4,0,1.2,1.2,1.8,2.4,1.2a25.28,25.28,0,0,0,10.5-8.7c13.5-2.7,23.4-7.5,26.1-22.5a95.55,95.55,0,0,0,.9-22.8,163.6,163.6,0,0,1,3.9,73.5,1.65,1.65,0,0,0,2.4,1.8,52.45,52.45,0,0,0,8.7-5.4c-2.7,13.2-2.4,26.7-.3,39.9.3,1.2,2.1,1.2,2.7.3,7.8-13.2,16.5-26.1,22.8-40.2a1.1,1.1,0,0,0-.6-1.5c.9-4.2,2.1-9,3-13.8a.93.93,0,0,0,.6-.3l.3-.3c-.6.3-.9.3-.9.6Zm-79.2-6c-3.3-4.2-3.3-21-4.8-26.4-4.5-18-12-36.3-24-50.7.6-.9.6-2.4-.9-2.7-2.4-.3-2.7,0-4.8.6-5.1,1.5-10.5,3.9-15.6,5.7-3.9,1.5-7.8,3.3-11.4,5.1a146.45,146.45,0,0,1,43.2-20.1.65.65,0,0,0,.6-.6c7.2,6.3,13.8,12,18.9,20.4,5.4,8.7,7.5,18,9.9,27.9,0,.3.3.6.9.6,0,6.6.9,13.5,0,20.1a90.82,90.82,0,0,1-5.4,16.5H372c-.6,0-.6.6-.3.9-1.8,3.3-4.2,5.4-6,2.7ZM258.6,100.8c-.6-.3-.9.6-.3.9,9.6,3.9,17.1,9.9,24.9,16.2.6.6,1.8-.3,1.2-.9-6.3-8.4-16.2-13.5-25.8-16.2Zm-79.8,14.4c-15,18.3-22.2,45.6-21.6,69.3a21.65,21.65,0,0,0-6,2.7c1.5-29.4,10.8-55.2,27-79.5.3-.6-.6-1.2-.9-.6-17.7,23.4-26.7,51.3-28.2,80.4a1,1,0,0,0,1.5.9c.3.3.6.6.9.3a39.19,39.19,0,0,0,6.3-2.4c.6.3,1.2,0,1.2-.6v-.6c2.1-26.1,9.3-45.6,20.7-69C180,115.2,179.4,114.6,178.8,115.2Z" transform="translate(-32.1 -40.17)"/></g></g></g></g></g></svg>